<svg width="22" height="23" viewBox="0 0 22 23" fill="none" xmlns="http://www.w3.org/2000/svg">
<path d="M11.0009 2.63167C13.5848 0.140245 17.5777 0.222938 20.0669 2.90101C22.5551 5.58026 22.6409 9.84722 20.3265 12.6304L10.9987 22.6623L1.67308 12.6304C-0.641281 9.84722 -0.554383 5.57318 1.93267 2.90101C4.42412 0.226482 8.40935 0.136701 11.0009 2.63167ZM18.5094 4.57023C16.8594 2.79587 14.1974 2.72381 12.4705 4.38948L11.002 5.80472L9.53243 4.39067C7.79996 2.72263 5.14351 2.79587 3.48914 4.57259C1.85017 6.33277 1.76767 9.15024 3.27795 11.012L10.9998 19.3179L18.7217 11.0132C20.233 9.15024 20.1505 6.33631 18.5094 4.57023Z" fill="#1C1C27"/>
</svg>
