<svg width="20" height="22" viewBox="0 0 20 22" fill="none" xmlns="http://www.w3.org/2000/svg">
<path d="M1.66667 10.53C1.66667 15.3796 5.39751 19.3108 10 19.3108C14.6025 19.3108 18.3333 15.3796 18.3333 10.53C18.3333 5.68042 14.6025 1.74927 10 1.74927C5.39751 1.74927 1.66667 5.68042 1.66667 10.53Z" stroke="#838383" stroke-width="1.5" stroke-linecap="round" stroke-linejoin="round"/>
<path d="M10.8333 1.79321C10.8333 1.79321 13.3333 5.26161 13.3333 10.5301C13.3333 15.7985 10.8333 19.2669 10.8333 19.2669" stroke="#838383" stroke-width="1.5" stroke-linecap="round" stroke-linejoin="round"/>
<path d="M9.16667 19.2669C9.16667 19.2669 6.66667 15.7985 6.66667 10.5301C6.66667 5.26161 9.16667 1.79321 9.16667 1.79321" stroke="#838383" stroke-width="1.5" stroke-linecap="round" stroke-linejoin="round"/>
<path d="M2.19167 13.6033H17.8083" stroke="#838383" stroke-width="1.5" stroke-linecap="round" stroke-linejoin="round"/>
<path d="M2.19167 7.45679H17.8083" stroke="#838383" stroke-width="1.5" stroke-linecap="round" stroke-linejoin="round"/>
</svg>
