<svg width="31" height="22" viewBox="0 0 31 22" fill="none" xmlns="http://www.w3.org/2000/svg">
<path d="M0 2.98613C0 1.89228 0.575032 1.30246 1.7251 1.21667L6.15681 1.24884C6.45424 1.24884 6.65253 1.4097 6.75167 1.73142C7.20773 3.34002 7.71832 4.72877 8.28344 5.89768C8.84856 7.06659 9.58718 8.41245 10.4993 9.93525C10.5786 10.1283 10.7075 10.2248 10.886 10.2248C11.0248 10.2248 11.1338 10.1497 11.2131 9.99959L11.3024 9.6457L11.3321 4.07997C11.3321 3.69391 11.2478 3.43653 11.0793 3.30784C10.9107 3.17916 10.5984 3.08264 10.1424 3.0183C9.78547 2.95395 9.60701 2.71803 9.60701 2.31052C9.60701 2.22472 9.61692 2.16038 9.63675 2.11748C10.0532 0.72337 11.2429 0.0263125 13.2059 0.0263125L14.8715 -0.00585938C15.625 -0.00585938 16.2496 0.197896 16.7453 0.605406C17.2411 1.01292 17.4889 1.65635 17.4889 2.53572V9.83873C17.6277 9.94597 17.7566 9.99959 17.8756 9.99959C18.173 9.99959 18.4308 9.80656 18.6489 9.4205C20.8301 6.11752 22.0099 3.90839 22.1883 2.79309C22.1883 2.77165 22.2082 2.71803 22.2478 2.63223C22.3866 2.31052 22.6146 2.03169 22.9319 1.79577C23.2492 1.55984 23.5268 1.39898 23.7647 1.31319C23.844 1.27029 23.9332 1.24884 24.0324 1.24884H28.6426L28.94 1.28102C29.3366 1.28102 29.6439 1.48477 29.862 1.89228C29.9413 2.02097 29.9959 2.16038 30.0256 2.31052C30.0554 2.46065 30.0752 2.61079 30.0851 2.76092C30.095 2.91106 30.1 2.99685 30.1 3.0183V3.2435C29.9612 4.12286 29.6092 5.06121 29.0441 6.05854C28.479 7.05587 27.7602 8.13363 26.8877 9.29181C26.0153 10.45 25.47 11.2114 25.2519 11.576C25.0734 11.8334 24.9842 12.0693 24.9842 12.2838C24.9842 12.4554 25.0635 12.6484 25.2221 12.8629L29.5646 18.7825C29.8025 19.1257 29.9215 19.501 29.9215 19.9085C29.9215 20.4018 29.7431 20.8093 29.3861 21.1311C29.0292 21.4528 28.6029 21.6351 28.1072 21.678L27.6016 21.7102H23.0806C23.0608 21.7102 23.0211 21.7155 22.9616 21.7262C22.9022 21.737 22.8625 21.7423 22.8427 21.7423C22.4064 21.7423 21.9999 21.5386 21.6232 21.1311C21.4844 20.9595 20.5525 19.6941 18.8274 17.3348C18.7282 17.1846 18.5894 17.0452 18.411 16.9165C18.3316 17.2597 18.2275 17.753 18.0987 18.3965C17.9698 19.0399 17.8756 19.501 17.8161 19.7798L17.7269 20.3268C17.5286 21.0774 17.1122 21.5278 16.4777 21.678L16.0613 21.7102H13.1464C11.5006 21.7102 9.85982 20.8951 8.22396 19.2651C6.58809 17.6351 5.11581 15.5278 3.80711 12.9433C2.49842 10.3588 1.27895 7.35078 0.148715 3.91911C0.0495718 3.64029 0 3.32929 0 2.98613ZM17.8756 11.3186C17.4592 11.3186 17.0824 11.1953 16.7453 10.9487C16.4083 10.702 16.2397 10.3642 16.2397 9.93525V2.53572C16.2397 2.10676 16.1406 1.80113 15.9423 1.61882C15.744 1.43651 15.397 1.34536 14.9013 1.34536L13.2059 1.4097C12.3533 1.4097 11.7089 1.57056 11.2726 1.89228C12.1451 2.34269 12.5813 3.07192 12.5813 4.07997V9.74222C12.5417 10.2784 12.3434 10.7235 11.9865 11.0774C11.6295 11.4312 11.233 11.6082 10.7967 11.6082C10.2019 11.6082 9.74581 11.2972 9.42855 10.6752C7.88191 8.14435 6.73185 5.74218 5.97835 3.4687L5.71067 2.63223L1.75484 2.60006C1.49707 2.60006 1.35331 2.61615 1.32357 2.64832C1.29382 2.68049 1.27895 2.77165 1.27895 2.92178C1.27895 3.11481 1.29878 3.31857 1.33844 3.53305L1.96304 5.33467C3.62865 9.98887 5.43802 13.6565 7.39115 16.3375C9.34428 19.0184 11.2627 20.3589 13.1464 20.3589H16.1207C16.2397 20.3589 16.3289 20.3214 16.3884 20.2463C16.4479 20.1713 16.4975 20.0265 16.5371 19.812L16.5966 19.4903L17.1617 16.6592C17.3204 16.2731 17.4592 16.0157 17.5781 15.887C17.7963 15.6511 18.054 15.5332 18.3515 15.5332C18.8274 15.5332 19.3132 15.8442 19.8089 16.4661L22.337 19.9407C22.4957 20.2195 22.6642 20.3589 22.8427 20.3589H27.7503C28.3451 20.3589 28.6426 20.1981 28.6426 19.8764C28.6426 19.7691 28.6128 19.6619 28.5533 19.5546L24.2406 13.7315C23.9035 13.2811 23.735 12.7985 23.735 12.2838C23.735 11.769 23.8936 11.2757 24.2108 10.8039C24.4686 10.3749 24.9693 9.66179 25.7129 8.66446C26.4565 7.66713 27.1058 6.73415 27.661 5.86551C28.2162 4.99687 28.5831 4.20866 28.7615 3.50088L28.8508 3.08264C28.8309 3.03974 28.821 2.97004 28.821 2.87352C28.821 2.77701 28.8111 2.69658 28.7913 2.63223H24.1216C23.8242 2.76092 23.5862 2.95395 23.4078 3.21133L23.2293 3.82259C22.7336 5.3025 21.4348 7.5867 19.333 10.6752C18.9166 11.1042 18.4308 11.3186 17.8756 11.3186Z" fill="#101010"/>
</svg>
